# xmcd CD database file
#
# Track frame offsets:
#	150
#	13742
#	27860
#	40092
#	59495
#	72415
#	86230
#	98543
#	112287
#	130467
#	146135
#	160322
#	175112
#	186387
#	205632
#	220640
#	236022
#	253497
#	269483
#	285617
#	298598
#	313375
#
# Disc length: 4341 seconds
#
# Revision: 0
# Processed by: cddbd v1.5.2PL0 Copyright (c) Steve Scherf et al.
# Submitted via: CDex 1.70beta2
#
DISCID=6110f316
DTITLE=ChartBreakers - ChartBreakers CGC-525
DYEAR=1900
DGENRE=Country
TTITLE0=Diamond Rio - In A Week Or Two
TTITLE1=Alan Jackson - Chasin' That Neon Rainbow
TTITLE2=Robert Ellis Orrall - Boom! It Was Over
TTITLE3=Reba McEntire - Night The Lights Went Out In Georgia
TTITLE4=George Strait - Chair
TTITLE5=Alabama and K T Oslin - Face To Face
TTITLE6=John Anderson - I Fell In The Water
TTITLE7=T Graham Brown - I Wish I Could Hurt That Way Again
TTITLE8=Rosanne Cash - Runaway Train
TTITLE9=Joe Diffie - Next Think Smokin'
TTITLE10=Exile - Woke Up In Love
TTITLE11=Judds - Mama He's Crazy
TTITLE12=Patty Loveless - A Little Bit In Love
TTITLE13=Ronnie Milsap - Since I Don't Have You
TTITLE14=Reba McEntire - Last One To Know
TTITLE15=Dolly Parton - Think About Love
TTITLE16=Restless Heart - Fast Movin' Train
TTITLE17=Doug Stone - These Lips Don't Know How To Say Goodbye
TTITLE18=GeorgeStrait - Chill Of An Early Fall
TTITLE19=Randy Travis - Honky Tonk Moon
TTITLE20=Tanya Tucker and Graham Brown - Don't Go Out
TTITLE21=Tanya Tucker - Strong Enough To Bend
EXTD=YEAR: 1900
EXTT0=
EXTT1=
EXTT2=
EXTT3=
EXTT4=
EXTT5=
EXTT6=
EXTT7=
EXTT8=
EXTT9=
EXTT10=
EXTT11=
EXTT12=
EXTT13=
EXTT14=
EXTT15=
EXTT16=
EXTT17=
EXTT18=
EXTT19=
EXTT20=
EXTT21=
PLAYORDER=
